<svg viewBox="0 0 2049.988 459" fill="#7a73ff" xmlns="http://www.w3.org/2000/svg">
  <path d="m1186.012 433h-213.012v25h199.696l13.329-25z" />
  <path d="m1667.8016 1497c36.5584 0 66.3008-29.6075 66.3008-66s-29.7424-66-66.3008-66h-192.8016v365h118v-233zm-99.8016-23v231h-68v-316h167.8016c23.0743 0 41.8466 19.0654 41.8466 42.5s-18.7723 42.5-41.8466 42.5z" transform="translate(-1475 -1271)" />
  <path d="m1877.3389 1730-82.7744-130.1853a204.8489 204.8489 0 0 1 -20.6 12.8826l52.8121 83.0841 5.86 9.2186h-88.2587l-1.7619-2.7847-65.386-103.0271-5.46-8.6191 10.2137-.5862c84.4421-4.8573 150.6322-74.8561 150.6322-159.3589 0-88.0169-71.6282-159.624-159.7789-159.624h-197.837v25h197.6621c74.6666 0 135.4124 60.785 135.4124 135.5s-60.7458 135.5-135.4124 135.5h-21.6621v36.41l80.0143 126.59z" transform="translate(-1475 -1271)" />
  <path d="m881 2h24v457h-24z" />
  <path d="m1948 1613v117h322v-117zm298 31v62h-274v-68h274z" transform="translate(-1475 -1271)" />
  <path d="m497 124v-6h6.012 291.988v-117h-322v25h292.012 5.988v6 56 6h-5.988-292.012v101h152.012 5.988v6 56 6h-5.988-152.012v24h182v-117h-151.988-6.012v-6zm506.012 218h-6.012v-6-334h-24v364h248.794l12.808-24zm787.988-62.962v1.541 177.421h25v-184.829l-149.938-272.171h-.05-27.821l152.073 276.689zm93-9.603v1.547 187.018h25v-193.272l-145.211-263.728h-28.023l147.492 267.081zm47.372-51.77 118.616-216.665h-27.727l-85.515 156.644-5.234 9.586-5.284-9.558-22.971-41.554-1.597-2.888 1.584-2.894 59.812-109.336h-27.861l-60.961 111.181zm-213.4 240.335-144.848-275.011-13.261 24.746 114.346 217.473 4.624 8.792h-9.934-63.632-3.618l-1.689-3.199-79.097-149.843-13.519 25.506 80.287 151.536zm-237.113-450.425-240.253 450.425h26.745l207.938-390.686 5.332-10.019 5.276 10.049 32.279 61.477 1.472 2.804-1.485 2.799-171.803 323.576h26.396l173.537-325.849z" />
</svg>
